<?xml version="1.0" encoding="UTF-8"?>
<svg id="Layer_2" data-name="Layer 2" xmlns="http://www.w3.org/2000/svg" viewBox="0 0 640.14 185.49">
  <defs>
    <style>
      .cls-1 {
        fill: #f0b100;
        stroke-width: 0px;
      }
    </style>
  </defs>
  <g id="Layer_1-2" data-name="Layer 1">
    <g>
      <path class="cls-1" d="M112.62,24.41c-11.08-6.66-23.98-9.99-38.7-9.99s-27.16,3.64-38.24,10.92c-11.08,7.29-19.8,17.43-26.15,30.45C3.17,68.8,0,83.99,0,101.34s3.06,32.77,9.18,45.33c6.12,12.55,14.72,22.16,25.8,28.82,11.08,6.67,23.98,10,38.7,10s27.2-3.64,38.35-10.92c11.16-7.28,19.87-17.43,26.15-30.45s9.41-28.2,9.41-45.56-3.06-32.97-9.18-45.44c-6.12-12.47-14.72-22.04-25.8-28.71ZM118.2,141.91c-4.11,12.32-9.88,21.96-17.32,28.94-7.44,6.97-16.19,10.46-26.27,10.46-9.45,0-18.09-3.29-25.92-9.88-7.83-6.58-14.03-15.96-18.6-28.12-4.57-12.16-6.86-26.46-6.86-42.89s2.05-30.29,6.16-42.54c4.1-12.24,9.88-21.85,17.32-28.82,7.44-6.97,16.19-10.46,26.27-10.46s18.28,3.29,26.03,9.88c7.75,6.59,13.91,15.92,18.48,28.01,4.57,12.09,6.86,26.42,6.86,43s-2.06,30.1-6.16,42.42Z"/>
      <path class="cls-1" d="M203.62,160.62V0c-3.41,1.09-7.17,1.9-11.27,2.44-4.11.54-8.41.81-12.9.81s-9.45-.23-14.41-.7v4.88c6.82,0,11.47,1.67,13.95,5,2.48,3.33,3.72,8.48,3.72,15.46v132.72c0,6.51-1.36,10.92-4.07,13.25-2.71,2.32-7.25,3.49-13.6,3.49v4.88c2.63-.15,6.66-.35,12.09-.58,5.42-.23,10.77-.35,16.04-.35s10.81.12,16.15.35c5.35.23,9.33.43,11.97.58v-4.88c-6.36,0-10.89-1.16-13.6-3.49-2.71-2.32-4.07-6.74-4.07-13.25Z"/>
      <path class="cls-1" d="M342.73,172.36c-2.56-3.33-3.84-8.48-3.84-15.46V0c-3.41,1.09-7.17,1.9-11.27,2.44-4.11.54-8.41.81-12.9.81s-9.45-.23-14.41-.7v4.88c6.82,0,11.47,1.67,13.95,5,2.48,3.33,3.72,8.48,3.72,15.46v44.85c-2.17-3.73-5.07-6.6-8.72-8.59-5.97-3.25-12.36-4.88-19.18-4.88-9.3,0-17.94,2.33-25.92,6.97-7.98,4.65-14.41,11.66-19.29,21.04-4.88,9.38-7.32,21.12-7.32,35.21s1.9,25.8,5.69,35.1c3.8,9.3,9.3,16.27,16.5,20.92,7.21,4.65,15.61,6.97,25.22,6.97,10.69,0,19.18-3.18,25.45-9.53,3.16-3.19,5.67-7.07,7.55-11.64v20.47c3.41-1.24,7.17-2.09,11.27-2.56,4.1-.46,8.4-.7,12.9-.7,4.8,0,9.61.23,14.41.7v-4.88c-6.66,0-11.27-1.66-13.83-5ZM309.38,170.15c-5.27,5.58-11.16,8.37-17.67,8.37s-12.59-2.05-17.32-6.16c-4.73-4.1-8.29-10.3-10.69-18.59-2.4-8.29-3.6-18.71-3.6-31.26-.16-19.68,2.83-34.25,8.95-43.7,6.12-9.45,13.75-14.18,22.9-14.18,6.2,0,11.58,1.47,16.15,4.42,4.42,2.85,7.7,7.37,9.88,13.55v69.22c-1.54,7.78-4.41,13.9-8.6,18.34Z"/>
      <path class="cls-1" d="M406.77,160.62V59.97c-3.41,1.09-7.17,1.9-11.27,2.44-4.11.54-8.41.81-12.9.81s-9.45-.23-14.41-.7v4.88c6.82,0,11.47,1.67,13.95,5,2.48,3.33,3.72,8.48,3.72,15.46v72.75c0,6.51-1.36,10.92-4.07,13.25-2.71,2.32-7.25,3.49-13.6,3.49v4.88c2.63-.15,6.66-.35,12.09-.58,5.42-.23,10.77-.35,16.04-.35s10.81.12,16.15.35,9.33.43,11.97.58v-4.88c-6.36,0-10.89-1.16-13.6-3.49-2.71-2.32-4.07-6.74-4.07-13.25Z"/>
      <path class="cls-1" d="M394.68,34.17c4.03,0,7.51-1.47,10.46-4.42,2.94-2.94,4.42-6.43,4.42-10.46s-1.47-7.51-4.42-10.46c-2.95-2.94-6.43-4.42-10.46-4.42s-7.52,1.47-10.46,4.42c-2.95,2.95-4.42,6.43-4.42,10.46s1.47,7.52,4.42,10.46c2.94,2.95,6.43,4.42,10.46,4.42Z"/>
      <path class="cls-1" d="M523.22,166.2c-3.57,3.41-7.44,5.85-11.62,7.32-4.18,1.47-8.6,2.21-13.25,2.21-5.89,0-11.59-1.98-17.08-5.93-5.5-3.95-9.96-9.72-13.37-17.32-3.41-7.59-5.11-16.66-5.11-27.2,0-2.79.08-5.58.23-8.37.13-2.34.31-4.5.55-6.51h72.66c0-17.51-3.83-30.41-11.51-38.7-7.67-8.29-18.33-12.44-31.96-12.44-10.54,0-19.76,2.67-27.66,8.02-7.9,5.35-14.03,12.94-18.36,22.78-4.34,9.84-6.51,21.58-6.51,35.21,0,11.78,2.13,22.2,6.39,31.26,4.26,9.07,10.38,16.15,18.36,21.27,7.98,5.11,17.55,7.67,28.71,7.67,7.75,0,14.56-1.51,20.45-4.53,5.89-3.02,10.77-6.93,14.64-11.74,3.87-4.8,6.66-9.76,8.37-14.88l-4.65-1.86c-2.64,5.74-5.74,10.31-9.3,13.71ZM472.9,74.38c5.5-7.13,11.81-10.69,18.94-10.69,5.27,0,9.57,1.94,12.9,5.81,3.33,3.88,5.77,9.03,7.32,15.46,1.55,6.43,2.17,13.45,1.86,21.04h-50.72c1.24-14.3,4.47-24.85,9.69-31.61Z"/>
      <path class="cls-1" d="M635.84,136.44c-2.87-4.65-6.71-8.91-11.51-12.78-4.81-3.87-10.15-7.67-16.04-11.39-5.27-3.41-10.15-6.54-14.64-9.41-4.5-2.87-8.14-5.96-10.92-9.3-2.79-3.33-4.18-7.32-4.18-11.97,0-5.89,1.82-10.34,5.46-13.37,3.64-3.02,8.17-4.53,13.6-4.53,6.97,0,12.63,1.74,16.97,5.23,4.34,3.49,7.63,7.94,9.88,13.37,2.24,5.43,3.83,11,4.76,16.74h5.35c0-10.07.08-18.09.23-24.06.15-5.96.38-11.12.7-15.46h-5.35c-1.09,9.76-4.18,12.55-9.3,8.37-2.02-1.7-5.19-3.56-9.53-5.58-4.34-2.01-9.61-3.02-15.81-3.02s-11.7,1.05-16.97,3.14c-5.27,2.09-9.49,5.35-12.67,9.76-3.18,4.42-4.77,10.11-4.77,17.08,0,6.36,1.51,11.78,4.53,16.27,3.02,4.5,6.97,8.52,11.85,12.09,4.88,3.57,10.11,7.13,15.69,10.69,7.59,4.81,13.87,9.38,18.83,13.71,4.96,4.34,7.44,9.92,7.44,16.74,0,5.43-1.09,9.76-3.25,13.02-2.17,3.25-4.84,5.58-8.02,6.97-3.18,1.39-6.32,2.09-9.41,2.09-7.75,0-13.79-1.82-18.13-5.46-4.34-3.64-7.52-8.72-9.53-15.22-2.02-6.51-3.57-14.1-4.65-22.78h-5.35c0,11.78-.08,21.23-.23,28.36-.16,7.13-.39,13.17-.7,18.13h5.35c.62-3.87,1.55-6.47,2.79-7.79,1.24-1.31,2.63-1.35,4.18-.12,1.55,1.24,3.14,2.4,4.77,3.49,1.63,1.09,3.21,2.02,4.76,2.79,2.79,1.08,5.69,1.9,8.72,2.44,3.02.54,6.24.81,9.65.81,7.12,0,13.67-1.24,19.64-3.72,5.96-2.48,10.81-6.12,14.53-10.92,3.72-4.8,5.58-10.77,5.58-17.9,0-6.35-1.43-11.85-4.3-16.5Z"/>
    </g>
  </g>
</svg>