<?xml version="1.0" encoding="UTF-8"?>
<svg id="Capa_2" data-name="Capa 2" xmlns="http://www.w3.org/2000/svg" viewBox="0 0 57.92 39.63">
  <defs>
    <style>
      .cls-1 {
        fill: #fcb51d;
      }
    </style>
  </defs>
  <g id="Capa_1-2" data-name="Capa 1">
    <path class="cls-1" d="M51.92,14.19h-31.74c-3.14,0-6.15,2.76-6,6s2.64,6,6,6h31.74c3.14,0,6.15-2.76,6-6s-2.64-6-6-6h0Z"/>
    <path class="cls-1" d="M24.06.75c-7.43,3.68-14.5,8.03-21.14,13C1.36,14.92.33,16.14.06,18.13c-.25,1.85.28,3.71,1.65,5.04,5.06,4.91,10.13,9.82,15.19,14.73,2.26,2.19,6.27,2.41,8.49,0s2.41-6.15,0-8.49c-5.06-4.91-10.13-9.82-15.19-14.73l-1.21,9.42c6.63-4.97,13.7-9.32,21.14-13,2.82-1.4,3.82-5.62,2.15-8.21C30.41.01,27.08-.75,24.06.75h0Z"/>
  </g>
</svg>