<?xml version="1.0" encoding="UTF-8"?>
<svg id="Capa_2" data-name="Capa 2" xmlns="http://www.w3.org/2000/svg" viewBox="0 0 178.44 80.9">
  <defs>
    <style>
      .cls-1 {
        fill: #fcb316;
      }
    </style>
  </defs>
  <g id="Capa_1-2" data-name="Capa 1">
    <g>
      <path class="cls-1" d="M29.74,30.45c2.3-1.56,3.46-3.72,3.46-6.5,0-1.86-.5-3.46-1.49-4.79-.99-1.33-2.4-2.34-4.21-3.04-.08-.03-.18-.05-.26-.08,1.31-.68,2.35-1.54,3.1-2.59.9-1.27,1.35-2.71,1.35-4.33,0-2.44-1.05-4.45-3.16-6.02-2.11-1.57-5.37-2.36-9.8-2.36H1.6v32.05h18.04c4.43,0,7.79-.78,10.1-2.33ZM12.22,8.29h5.04c1.22,0,2.11.2,2.68.6.56.4.85.99.85,1.79s-.28,1.35-.85,1.76c-.57.41-1.46.62-2.68.62h-5.04v-4.76ZM12.22,25.23v-5.04h6.5c1.19,0,2.08.21,2.68.64.6.43.89,1.05.89,1.88s-.3,1.45-.89,1.88c-.6.43-1.49.64-2.68.64h-6.5Z"/>
      <path class="cls-1" d="M43.91,32.78l2.15-5.59h12.19l2.15,5.59h11.17L57.56.73h-10.62l-14.01,32.05h10.99ZM52.16,11.34l3.1,8.07h-6.21l3.1-8.07Z"/>
      <polygon class="cls-1" points="83.91 18.21 96.08 32.78 104.97 32.78 104.97 .73 94.44 .73 94.44 15.31 82.26 .73 73.37 .73 73.37 32.78 83.91 32.78 83.91 18.21"/>
      <path class="cls-1" d="M113.94,28.85c1.6,1.5,3.5,2.65,5.68,3.46,2.18.81,4.56,1.21,7.12,1.21,3.14,0,5.93-.56,8.36-1.67,2.43-1.11,4.43-2.69,6.02-4.74l-6.82-6.09c-.95,1.19-1.99,2.11-3.14,2.77-1.15.66-2.44.98-3.87.98-1.13,0-2.15-.18-3.07-.55-.92-.37-1.7-.9-2.36-1.6-.66-.7-1.17-1.55-1.53-2.54-.37-.99-.55-2.1-.55-3.32s.18-2.33.55-3.32c.37-.99.88-1.84,1.53-2.54.66-.7,1.44-1.24,2.36-1.6.92-.37,1.94-.55,3.07-.55,1.43,0,2.72.33,3.87.98,1.14.66,2.19,1.58,3.14,2.77l6.82-6.09c-1.59-2.08-3.59-3.66-6.02-4.76-2.43-1.1-5.21-1.65-8.36-1.65-2.56,0-4.94.4-7.12,1.21-2.18.81-4.07,1.96-5.68,3.46-1.6,1.5-2.85,3.27-3.73,5.31-.89,2.05-1.33,4.3-1.33,6.78s.44,4.73,1.33,6.78c.88,2.05,2.13,3.82,3.73,5.31Z"/>
      <path class="cls-1" d="M166.85,32.28c2.2-.82,4.11-1.99,5.72-3.5,1.62-1.51,2.88-3.29,3.78-5.33.9-2.04,1.35-4.27,1.35-6.69s-.45-4.68-1.35-6.71c-.9-2.03-2.16-3.8-3.78-5.31-1.62-1.51-3.53-2.68-5.72-3.5-2.2-.82-4.61-1.24-7.23-1.24s-5,.41-7.21,1.24c-2.21.82-4.13,1.99-5.75,3.5-1.62,1.51-2.88,3.28-3.78,5.31-.9,2.03-1.35,4.27-1.35,6.71s.45,4.64,1.35,6.69c.9,2.05,2.16,3.82,3.78,5.33,1.62,1.51,3.53,2.68,5.75,3.5,2.21.82,4.62,1.24,7.21,1.24s5.04-.41,7.23-1.24ZM154.51,22.64c-.66-.69-1.17-1.53-1.53-2.52-.37-.99-.55-2.11-.55-3.37s.18-2.37.55-3.37c.37-.99.88-1.83,1.53-2.52.66-.69,1.42-1.21,2.29-1.58s1.81-.55,2.82-.55,1.95.18,2.82.55c.87.37,1.63.89,2.29,1.58.66.69,1.17,1.53,1.53,2.52.37.99.55,2.11.55,3.37s-.18,2.37-.55,3.37c-.37.99-.88,1.83-1.53,2.52-.66.69-1.42,1.21-2.29,1.58-.87.37-1.81.55-2.82.55s-1.95-.18-2.82-.55-1.63-.89-2.29-1.58Z"/>
      <path class="cls-1" d="M9.92,53.62c1.07-.51,1.9-1.24,2.5-2.18s.9-2.06.9-3.36-.3-2.43-.9-3.37-1.43-1.66-2.5-2.17c-1.07-.51-2.3-.77-3.71-.77H0v12.6h6.21c1.4,0,2.64-.25,3.71-.77ZM4.25,51.07v-5.98h1.78c.6,0,1.12.11,1.57.34.45.23.8.56,1.05,1.01s.38.99.38,1.64-.13,1.18-.38,1.63c-.25.45-.6.79-1.05,1.02-.45.23-.98.34-1.57.34h-1.78Z"/>
      <polygon class="cls-1" points="19.12 49.52 24.45 49.52 24.45 46.46 19.12 46.46 19.12 44.99 25.19 44.99 25.19 41.78 14.95 41.78 14.95 54.38 25.42 54.38 25.42 51.18 19.12 51.18 19.12 49.52"/>
      <path class="cls-1" d="M36.6,41.78l-5.51,12.6h4.32l.84-2.2h4.79l.84,2.2h4.39l-5.51-12.6h-4.18ZM37.43,49.13l1.22-3.17,1.22,3.17h-2.44Z"/>
      <polygon class="cls-1" points="47.12 41.78 47.12 54.38 57.06 54.38 57.06 51.09 51.37 51.09 51.37 41.78 47.12 41.78"/>
      <rect class="cls-1" x="58.12" y="41.78" width="4.25" height="12.6"/>
      <polygon class="cls-1" points="64.64 41.78 64.64 54.38 68.51 54.38 68.51 48.84 71.24 53.25 73.12 53.25 75.86 48.64 75.89 54.38 79.76 54.38 79.72 41.78 76.23 41.78 72.24 48.49 68.13 41.78 64.64 41.78"/>
      <polygon class="cls-1" points="92.26 44.99 92.26 41.78 82.02 41.78 82.02 54.38 92.5 54.38 92.5 51.18 86.2 51.18 86.2 49.52 91.53 49.52 91.53 46.46 86.2 46.46 86.2 44.99 92.26 44.99"/>
      <polygon class="cls-1" points="102.7 47.51 97.91 41.78 94.42 41.78 94.42 54.38 98.56 54.38 98.56 48.65 103.34 54.38 106.84 54.38 106.84 41.78 102.7 41.78 102.7 47.51"/>
      <polygon class="cls-1" points="111.57 54.38 115.82 54.38 115.82 45.08 119.51 45.08 119.51 41.78 107.88 41.78 107.88 45.08 111.57 45.08 111.57 54.38"/>
      <path class="cls-1" d="M132.22,52.81c.64-.59,1.13-1.29,1.48-2.1.35-.8.53-1.68.53-2.63s-.18-1.84-.53-2.64c-.35-.8-.85-1.49-1.48-2.09-.64-.59-1.39-1.05-2.25-1.38-.86-.32-1.81-.49-2.84-.49s-1.96.16-2.83.49c-.87.32-1.62.78-2.26,1.38-.64.59-1.13,1.29-1.48,2.09-.35.8-.53,1.68-.53,2.64s.18,1.82.53,2.63c.35.8.85,1.5,1.48,2.1.64.59,1.39,1.05,2.26,1.38.87.32,1.81.49,2.83.49s1.98-.16,2.84-.49c.86-.32,1.61-.78,2.25-1.38ZM129.74,49.41c-.14.39-.35.72-.6.99-.26.27-.56.48-.9.62-.34.14-.71.22-1.11.22s-.76-.07-1.11-.22c-.34-.14-.64-.35-.9-.62-.26-.27-.46-.6-.6-.99-.14-.39-.22-.83-.22-1.32s.07-.93.22-1.32c.14-.39.34-.72.6-.99.26-.27.56-.48.9-.62.34-.14.71-.22,1.11-.22s.77.07,1.11.22c.34.14.64.35.9.62.26.27.46.6.6.99.14.39.22.83.22,1.32s-.07.93-.22,1.32Z"/>
      <path class="cls-1" d="M140.06,44.84c.24-.07.56-.11.97-.11.55,0,1.12.08,1.7.23.58.16,1.19.39,1.81.7l1.28-3.08c-.66-.37-1.4-.65-2.23-.83-.83-.18-1.67-.27-2.52-.27-1.3,0-2.38.19-3.25.58-.87.38-1.52.9-1.96,1.54s-.66,1.35-.66,2.13c0,.67.13,1.23.38,1.68s.58.81,1,1.09c.41.28.87.5,1.37.67.5.17.99.3,1.49.41.49.1.94.2,1.36.29.41.09.75.2,1,.33.25.13.38.31.38.54,0,.14-.05.27-.16.37-.11.1-.28.18-.51.23-.23.05-.56.08-.96.08-.7,0-1.41-.1-2.15-.31-.74-.21-1.41-.49-2.01-.84l-1.37,3.1c.64.38,1.45.7,2.43.94.98.24,2,.36,3.06.36,1.31,0,2.39-.2,3.26-.58.86-.39,1.51-.91,1.95-1.55.44-.64.66-1.35.66-2.11,0-.66-.13-1.21-.38-1.66-.25-.44-.58-.8-1-1.08s-.87-.5-1.36-.67-.99-.3-1.48-.4c-.5-.1-.95-.19-1.37-.27s-.75-.19-1-.31c-.25-.13-.38-.3-.38-.51,0-.14.05-.28.15-.4.1-.12.27-.22.51-.29Z"/>
      <path class="cls-1" d="M162.93,42.55c-1.07-.51-2.3-.77-3.71-.77h-6.21v12.6h6.21c1.4,0,2.64-.25,3.71-.77,1.07-.51,1.9-1.24,2.5-2.18s.9-2.06.9-3.36-.3-2.43-.9-3.37-1.43-1.66-2.5-2.17ZM161.67,49.71c-.25.45-.6.79-1.05,1.02-.45.23-.98.34-1.57.34h-1.78v-5.98h1.78c.6,0,1.12.11,1.57.34.45.23.8.56,1.05,1.01s.38.99.38,1.64-.13,1.18-.38,1.63Z"/>
      <polygon class="cls-1" points="172.14 51.18 172.14 49.52 177.47 49.52 177.47 46.46 172.14 46.46 172.14 44.99 178.21 44.99 178.21 41.78 167.96 41.78 167.96 54.38 178.44 54.38 178.44 51.18 172.14 51.18"/>
      <path class="cls-1" d="M18.63,59.34c-1.9-.91-4.1-1.36-6.59-1.36H1v22.4h11.04c2.5,0,4.69-.45,6.59-1.36,1.9-.91,3.38-2.2,4.45-3.87s1.6-3.66,1.6-5.97-.53-4.32-1.6-5.98-2.55-2.95-4.45-3.86ZM16.39,72.08c-.45.8-1.07,1.4-1.87,1.81-.8.41-1.73.61-2.8.61h-3.17v-10.62h3.17c1.07,0,2,.2,2.8.61.8.41,1.42,1,1.87,1.79.45.79.67,1.76.67,2.91s-.22,2.1-.67,2.9Z"/>
      <path class="cls-1" d="M41.54,70.08c0,1.71-.3,2.92-.91,3.63s-1.45,1.07-2.51,1.07-1.88-.36-2.5-1.07-.93-1.92-.93-3.63v-12.1h-7.55v12.32c0,3.35.96,5.95,2.88,7.81,1.92,1.86,4.6,2.78,8.03,2.78s6.11-.93,8.03-2.78c1.92-1.86,2.88-4.46,2.88-7.81v-12.32h-7.42v12.1Z"/>
      <path class="cls-1" d="M72.44,70.9c.83-1.25,1.25-2.74,1.25-4.46,0-2.6-.9-4.66-2.69-6.18-1.79-1.51-4.41-2.27-7.84-2.27h-10.46v22.4h7.55v-5.63h2.06l3.8,5.63h8.06l-4.71-6.91c1.25-.64,2.26-1.49,2.98-2.58ZM65.32,68.35c-.5.47-1.28.7-2.32.7h-2.75v-5.25h2.75c1.04,0,1.82.24,2.32.7.5.47.75,1.11.75,1.92s-.25,1.45-.75,1.92Z"/>
      <path class="cls-1" d="M84.72,57.98l-9.79,22.4h7.68l1.5-3.9h8.52l1.5,3.9h7.81l-9.79-22.4h-7.42ZM86.19,71.04l2.17-5.64,2.17,5.64h-4.34Z"/>
      <polygon class="cls-1" points="118.02 68.17 109.51 57.98 103.3 57.98 103.3 80.38 110.66 80.38 110.66 70.2 119.18 80.38 125.38 80.38 125.38 57.98 118.02 57.98 118.02 68.17"/>
      <path class="cls-1" d="M137.32,65.09c.47-.49,1.04-.86,1.71-1.12s1.42-.38,2.26-.38c1,0,1.91.21,2.74.62.82.42,1.58,1.03,2.29,1.84l4.83-4.26c-1.13-1.39-2.57-2.45-4.3-3.2-1.74-.75-3.72-1.12-5.94-1.12-1.86,0-3.56.28-5.1.85-1.55.57-2.89,1.37-4.02,2.42-1.13,1.05-2.01,2.28-2.62,3.71-.62,1.43-.93,3.01-.93,4.74s.31,3.31.93,4.74c.62,1.43,1.49,2.67,2.61,3.71,1.12,1.05,2.44,1.85,3.97,2.42,1.52.57,3.19.85,5.01.85,1.64,0,3.34-.25,5.09-.74,1.75-.49,3.31-1.19,4.67-2.11v-9.47h-6.56v5.67c-.09.03-.17.08-.26.11-.81.29-1.64.43-2.5.43s-1.54-.13-2.19-.4c-.65-.27-1.21-.64-1.68-1.14-.47-.49-.83-1.08-1.09-1.78-.26-.69-.38-1.46-.38-2.29,0-.87.13-1.65.38-2.34.26-.68.62-1.27,1.09-1.76Z"/>
      <path class="cls-1" d="M174.34,60.78c-1.13-1.06-2.46-1.87-4-2.45-1.54-.58-3.22-.86-5.06-.86s-3.49.29-5.04.86c-1.55.58-2.89,1.39-4.02,2.45-1.13,1.06-2.01,2.29-2.64,3.71-.63,1.42-.94,2.98-.94,4.69s.31,3.24.94,4.67c.63,1.43,1.51,2.67,2.64,3.73,1.13,1.06,2.47,1.87,4.02,2.45s3.23.86,5.04.86,3.52-.29,5.06-.86,2.87-1.39,4-2.45c1.13-1.06,2.01-2.3,2.64-3.73.63-1.43.94-2.99.94-4.67s-.31-3.27-.94-4.69c-.63-1.42-1.51-2.66-2.64-3.71ZM169.92,71.54c-.26.69-.61,1.28-1.07,1.76-.46.48-.99.85-1.6,1.1-.61.26-1.26.38-1.97.38s-1.36-.13-1.97-.38c-.61-.26-1.14-.62-1.6-1.1-.46-.48-.82-1.07-1.07-1.76-.26-.69-.38-1.48-.38-2.35s.13-1.66.38-2.35c.26-.69.61-1.28,1.07-1.76.46-.48.99-.85,1.6-1.1s1.26-.38,1.97-.38,1.36.13,1.97.38,1.14.62,1.6,1.1c.46.48.82,1.07,1.07,1.76s.38,1.48.38,2.35-.13,1.66-.38,2.35Z"/>
    </g>
  </g>
</svg>