<?xml version="1.0" encoding="UTF-8"?>
<svg id="Capa_2" data-name="Capa 2" xmlns="http://www.w3.org/2000/svg" viewBox="0 0 799.26 25.79">
  <defs>
    <style>
      .cls-1 {
        fill: #fcb51d;
      }
    </style>
  </defs>
  <g id="Capa_1-2" data-name="Capa 1">
    <path class="cls-1" d="M5.77,25.77c51.26-3.16,102.55-5.79,153.86-7.87,52.8-2.14,105.63-3.69,158.47-4.67,52.26-.97,104.53-1.37,156.79-1.2,50.79.16,101.57.86,152.34,2.09,49.27,1.2,98.52,2.89,147.75,5.09,6.17.28,12.33.56,18.49.85,7.72.36,7.7-11.64,0-12-49.03-2.31-98.09-4.14-147.16-5.46-50.58-1.36-101.17-2.19-151.76-2.49-52.08-.31-104.16-.05-156.23.76s-105.84,2.24-158.74,4.24c-51.52,1.94-103.01,4.43-154.48,7.48-6.45.38-12.89.77-19.34,1.17-7.67.47-7.73,12.48,0,12h0Z"/>
  </g>
</svg>